<!DOCTYPE svg PUBLIC "-//W3C//DTD SVG 1.1//EN" "http://www.w3.org/Graphics/SVG/1.1/DTD/svg11.dtd">
<!-- Uploaded to: SVG Repo, www.svgrepo.com, Transformed by: SVG Repo Mixer Tools -->
<svg height="100px" width="100px" version="1.1" id="Layer_1" xmlns="http://www.w3.org/2000/svg" xmlns:xlink="http://www.w3.org/1999/xlink" viewBox="-51.2 -51.2 614.40 614.40" xml:space="preserve" fill="#ffffff">
<g id="SVGRepo_bgCarrier" stroke-width="0"/>
<g id="SVGRepo_tracerCarrier" stroke-linecap="round" stroke-linejoin="round"/>
<g id="SVGRepo_iconCarrier"> <circle style="fill:#ffffff;" cx="409.728" cy="50.448" r="50.448"/> <g> <path style="fill:#ffffff;" d="M407.344,218.176l-48.752-105.68c0,0-51.136,0.688-51.136,47.728s0,57.952,0,57.952 S407.68,218.176,407.344,218.176z"/> <path style="fill:#ffffff;" d="M412.112,218.176l48.752-105.68c0,0,51.136,0.688,51.136,47.728s0,57.952,0,57.952 S411.776,218.176,412.112,218.176z"/> </g> <polygon style="fill:#ffffff;" points="409.728,112.496 374.624,112.496 409.728,190.224 444.848,112.496 "/> <circle style="fill:#ffffff;" cx="102.272" cy="344.272" r="50.448"/> <g> <path style="fill:#ffffff;" d="M99.888,512L51.136,406.32c0,0-51.136,0.688-51.136,47.728S0,512,0,512S100.224,512,99.888,512z"/> <path style="fill:#ffffff;" d="M104.656,512l48.752-105.68c0,0,51.136,0.688,51.136,47.728s0,57.952,0,57.952 S104.32,512,104.656,512z"/> </g> <g> <polygon style="fill:#ffffff;" points="102.272,406.32 67.152,406.32 102.272,484.048 137.376,406.32 "/> <polygon style="fill:#ffffff;" points="230.16,453.328 418.16,453.328 418.16,244.592 402.16,244.592 402.16,437.328 230.16,437.328 "/> </g> </g>
</svg>